<svg xmlns="http://www.w3.org/2000/svg" viewBox="0 0 68.6611 68.6566">
  <title>uic_logo-logo-mark-one-color-rgb</title>
  <g id="black-rgb">
    <g id="logoMark">
      <path id="logoMark_CompoundPathItem_" data-name="logoMark &lt;CompoundPathItem&gt;" d="M34.3313,0a34.3283,34.3283,0,1,0,34.33,34.3282A34.3291,34.3291,0,0,0,34.3313,0ZM14.921,40.7031a3.24,3.24,0,0,0,2.6357.9214,3.24,3.24,0,0,0,2.6327-.9214,4.7676,4.7676,0,0,0,.757-3.1632V24.1714h6.72V37.41c0,3.1288-.3315,4.6412-1.2211,6.1589-1.4808,2.4694-5.4338,3.423-8.8882,3.423-3.46,0-7.4095-.9536-8.8912-3.423-.89-1.5177-1.2211-3.03-1.2211-6.1589V24.1714h6.719V37.54A4.7673,4.7673,0,0,0,14.921,40.7031Zm16.8245,5.8605V24.1714h6.7174V46.5636Zm21.1066.3949c-7.08,0-11.1294-4.7424-11.1294-11.5925,0-6.8783,4.2808-11.5873,11.2619-11.5873,5.3341,0,8.4929,3.0611,9.6123,5.9919l-5.8254,2.7981c-.5619-2.1723-1.78-3.4554-3.8875-3.4554-2.8642,0-4.3148,2.3708-4.3148,6.2527,0,3.8536,1.4506,6.16,4.3148,6.16a3.7235,3.7235,0,0,0,3.754-2.7989L62.73,40.8984C61.1509,44.49,57.9551,46.9585,52.8521,46.9585Z"/>
    </g>
  </g>
</svg>
